<mxfile host="65bd71144e">
    <diagram id="GM_LwJhD_kH3F-W7C1gs" name="Page-1">
        <mxGraphModel dx="865" dy="558" grid="1" gridSize="10" guides="1" tooltips="1" connect="1" arrows="1" fold="1" page="1" pageScale="1" pageWidth="620" pageHeight="350" math="0" shadow="0">
            <root>
                <mxCell id="0"/>
                <mxCell id="1" parent="0"/>
                <mxCell id="r83g5te3AEHIeUQ5Fmxh-1" value="&lt;b&gt;&lt;font style=&quot;font-size: 16px&quot;&gt;Sequencer&lt;/font&gt;&lt;/b&gt;" style="rounded=1;whiteSpace=wrap;html=1;fillColor=#FFD966;strokeColor=#67AB9F;strokeWidth=4;" parent="1" vertex="1">
                    <mxGeometry x="10" y="60" width="115" height="220" as="geometry"/>
                </mxCell>
                <mxCell id="r83g5te3AEHIeUQ5Fmxh-11" value="" style="rounded=0;whiteSpace=wrap;html=1;strokeColor=#67AB9F;strokeWidth=4;fillColor=#E6D0DE;" parent="1" vertex="1">
                    <mxGeometry x="470" y="130" width="80" height="120" as="geometry"/>
                </mxCell>
                <mxCell id="r83g5te3AEHIeUQ5Fmxh-29" value="" style="endArrow=classic;html=1;dashed=1;strokeWidth=3;fillColor=#60a917;strokeColor=#2D7600;entryX=1;entryY=0.25;entryDx=0;entryDy=0;" parent="1" target="r83g5te3AEHIeUQ5Fmxh-11" edge="1">
                    <mxGeometry width="50" height="50" relative="1" as="geometry">
                        <mxPoint x="130" y="90" as="sourcePoint"/>
                        <mxPoint x="740" y="160" as="targetPoint"/>
                        <Array as="points">
                            <mxPoint x="260" y="90"/>
                            <mxPoint x="330" y="90"/>
                            <mxPoint x="600" y="90"/>
                            <mxPoint x="600" y="160"/>
                        </Array>
                    </mxGeometry>
                </mxCell>
                <mxCell id="r83g5te3AEHIeUQ5Fmxh-33" value="&lt;font size=&quot;1&quot;&gt;&lt;b&gt;&lt;u style=&quot;font-size: 16px&quot;&gt;DUT&lt;/u&gt;&lt;/b&gt;&lt;/font&gt;" style="text;html=1;strokeColor=none;fillColor=none;align=center;verticalAlign=middle;whiteSpace=wrap;rounded=0;" parent="1" vertex="1">
                    <mxGeometry x="460" y="170" width="100" height="20" as="geometry"/>
                </mxCell>
                <mxCell id="r83g5te3AEHIeUQ5Fmxh-47" value="&lt;font size=&quot;1&quot;&gt;&lt;b style=&quot;font-size: 16px&quot;&gt;Testbench&lt;/b&gt;&lt;/font&gt;" style="text;html=1;strokeColor=none;fillColor=none;align=center;verticalAlign=middle;whiteSpace=wrap;rounded=0;" parent="1" vertex="1">
                    <mxGeometry x="10" y="10" width="80" height="20" as="geometry"/>
                </mxCell>
                <mxCell id="vyIQQBK7vmGZ_ZomwAHR-1" value="" style="endArrow=classic;dashed=1;html=1;exitX=0;exitY=0.25;exitDx=0;exitDy=0;fillColor=#d5e8d4;strokeColor=#2D7600;strokeWidth=3;startArrow=none;startFill=0;endFill=1;entryX=1.016;entryY=0.45;entryDx=0;entryDy=0;entryPerimeter=0;" parent="1" source="r83g5te3AEHIeUQ5Fmxh-11" target="r83g5te3AEHIeUQ5Fmxh-1" edge="1">
                    <mxGeometry width="50" height="50" relative="1" as="geometry">
                        <mxPoint x="210" y="160.0000000000001" as="sourcePoint"/>
                        <mxPoint x="160" y="160" as="targetPoint"/>
                    </mxGeometry>
                </mxCell>
                <mxCell id="fbfqpuWxEKbpqcm9xzH3-1" value="&lt;span style=&quot;font-size: 16px;&quot;&gt;&lt;b&gt;assert_value&lt;/b&gt;&lt;/span&gt;" style="rounded=1;whiteSpace=wrap;html=1;fillColor=#f8cecc;strokeColor=#b85450;strokeWidth=4;" parent="1" vertex="1">
                    <mxGeometry x="180" y="200" width="120" height="50" as="geometry"/>
                </mxCell>
                <mxCell id="2" value="" style="endArrow=classic;html=1;rounded=0;strokeWidth=3;strokeColor=#B85450;" parent="1" edge="1">
                    <mxGeometry width="50" height="50" relative="1" as="geometry">
                        <mxPoint x="340" y="224.66000000000003" as="sourcePoint"/>
                        <mxPoint x="300" y="224.98000000000002" as="targetPoint"/>
                    </mxGeometry>
                </mxCell>
                <mxCell id="3" value="signal to bool" style="ellipse;shape=cloud;whiteSpace=wrap;html=1;strokeWidth=3;strokeColor=#666666;" parent="1" vertex="1">
                    <mxGeometry x="330" y="180" width="110" height="85" as="geometry"/>
                </mxCell>
                <mxCell id="3jlZFkxg4EAA0DXqRLMq-2" value="" style="endArrow=classic;html=1;rounded=0;strokeWidth=3;strokeColor=#B85450;" parent="1" edge="1">
                    <mxGeometry width="50" height="50" relative="1" as="geometry">
                        <mxPoint x="470" y="224.83" as="sourcePoint"/>
                        <mxPoint x="430" y="225.15" as="targetPoint"/>
                    </mxGeometry>
                </mxCell>
                <mxCell id="4" value="" style="endArrow=classic;html=1;rounded=0;strokeWidth=3;strokeColor=#000000;entryX=0.5;entryY=1;entryDx=0;entryDy=0;exitX=0.5;exitY=1;exitDx=0;exitDy=0;" parent="1" source="r83g5te3AEHIeUQ5Fmxh-11" target="fbfqpuWxEKbpqcm9xzH3-1" edge="1">
                    <mxGeometry width="50" height="50" relative="1" as="geometry">
                        <mxPoint x="240" y="280" as="sourcePoint"/>
                        <mxPoint x="210" y="280.32000000000005" as="targetPoint"/>
                        <Array as="points">
                            <mxPoint x="510" y="280"/>
                            <mxPoint x="240" y="280"/>
                        </Array>
                    </mxGeometry>
                </mxCell>
            </root>
        </mxGraphModel>
    </diagram>
</mxfile>